<svg xmlns="http://www.w3.org/2000/svg" xmlns:xlink="http://www.w3.org/1999/xlink" viewBox="0 0 1366 760.1"><defs><style>.cls-1{fill:url(#linear-gradient);}.cls-2{fill:url(#linear-gradient-2);}.cls-3{fill:url(#linear-gradient-3);}</style><linearGradient id="linear-gradient" x1="75.82" y1="667.95" x2="653.73" y2="393.93" gradientUnits="userSpaceOnUse"><stop offset="0" stop-color="#0071bc"/><stop offset="0.68" stop-color="#3fa9f5"/></linearGradient><linearGradient id="linear-gradient-2" x1="-134.37" y1="447.48" x2="-4.63" y2="385.96" gradientTransform="translate(0 784) rotate(180)" gradientUnits="userSpaceOnUse"><stop offset="0" stop-color="#7c71bc"/><stop offset="1" stop-color="#3fa9f5" stop-opacity="0"/></linearGradient><linearGradient id="linear-gradient-3" x1="1218.8" y1="364.88" x2="1372.36" y2="292.07" gradientUnits="userSpaceOnUse"><stop offset="0" stop-color="#7c71bc" stop-opacity="0.4"/><stop offset="1" stop-color="#3fa9f5" stop-opacity="0.2"/></linearGradient></defs><g id="Layer_2" data-name="Layer 2"><g id="Layer_1-2" data-name="Layer 1"><path class="cls-1" d="M1027.5,190.5C697.5,216.5,683,0,683,0H0V635.08c111.87-53.7,249.66-62,371.39-8.05,8.3,3.68,16.64,7.66,25.73,9.05,17.6,2.69,28.27-9.36,43.22-15.11a482.78,482.78,0,0,1,52.55-17.16A455.42,455.42,0,0,1,606.5,589.5c37.54,0,74.78,5.37,110.84,14.8,28.86,7.55,68.65,32.49,98.24,31.8,16.23-.39,29.84-12.15,44-18.07,15.26-6.36,32.16-10.71,48.28-14.79a455.27,455.27,0,0,1,111.38-13.74c145.39,0,273.22,67.94,346.75,170.6V384S1357.5,164.5,1027.5,190.5Z"/><path class="cls-2" d="M0,238A154,154,0,0,1,154,392,154,154,0,0,1,0,546"/><path class="cls-3" d="M1366,92a120.23,120.23,0,0,0-102,56.52l-55.78,89.27a120.26,120.26,0,0,0,0,127.42L1264,454.48A120.23,120.23,0,0,0,1366,511"/></g></g></svg>